<mxfile host="app.diagrams.net" modified="2023-11-27T00:10:14.678Z" agent="Mozilla/5.0 (Windows NT 10.0; Win64; x64) AppleWebKit/537.36 (KHTML, like Gecko) Chrome/119.0.0.0 Safari/537.36" etag="llIOCVBxUH04YV-d2k3n" version="22.1.4" type="github">
  <diagram id="piDafpqhtRUU5qUU-vj8" name="Page-1">
    <mxGraphModel dx="1434" dy="782" grid="1" gridSize="10" guides="1" tooltips="1" connect="1" arrows="1" fold="1" page="1" pageScale="1" pageWidth="827" pageHeight="1169" math="0" shadow="0">
      <root>
        <mxCell id="0" />
        <mxCell id="1" parent="0" />
        <mxCell id="ZyMeSrD0al1ncY0U2Chx-11" value="" style="rounded=0;whiteSpace=wrap;html=1;" vertex="1" parent="1">
          <mxGeometry x="40" y="40" width="280" height="440" as="geometry" />
        </mxCell>
        <mxCell id="ZyMeSrD0al1ncY0U2Chx-16" style="edgeStyle=orthogonalEdgeStyle;rounded=0;orthogonalLoop=1;jettySize=auto;html=1;" edge="1" parent="1" source="ZyMeSrD0al1ncY0U2Chx-12" target="ZyMeSrD0al1ncY0U2Chx-15">
          <mxGeometry relative="1" as="geometry" />
        </mxCell>
        <mxCell id="ZyMeSrD0al1ncY0U2Chx-12" value="Sign Up" style="strokeWidth=1;shadow=0;dashed=0;align=center;html=1;shape=mxgraph.mockup.buttons.button;strokeColor=#666666;fontColor=#ffffff;mainText=;buttonStyle=round;fontSize=17;fontStyle=1;fillColor=#008cff;whiteSpace=wrap;" vertex="1" parent="1">
          <mxGeometry x="105" y="310" width="155" height="50" as="geometry" />
        </mxCell>
        <mxCell id="ZyMeSrD0al1ncY0U2Chx-34" style="edgeStyle=orthogonalEdgeStyle;rounded=0;orthogonalLoop=1;jettySize=auto;html=1;" edge="1" parent="1" source="ZyMeSrD0al1ncY0U2Chx-13" target="ZyMeSrD0al1ncY0U2Chx-33">
          <mxGeometry relative="1" as="geometry">
            <Array as="points">
              <mxPoint x="180" y="490" />
              <mxPoint x="360" y="490" />
            </Array>
          </mxGeometry>
        </mxCell>
        <mxCell id="ZyMeSrD0al1ncY0U2Chx-13" value="Sign In" style="strokeWidth=1;shadow=0;dashed=0;align=center;html=1;shape=mxgraph.mockup.buttons.button;strokeColor=#666666;fontColor=#ffffff;mainText=;buttonStyle=round;fontSize=17;fontStyle=1;fillColor=#008cff;whiteSpace=wrap;" vertex="1" parent="1">
          <mxGeometry x="105" y="370" width="150" height="50" as="geometry" />
        </mxCell>
        <mxCell id="ZyMeSrD0al1ncY0U2Chx-14" value="&lt;font style=&quot;font-size: 33px;&quot;&gt;Fridge Tracker&lt;/font&gt;" style="text;html=1;strokeColor=none;fillColor=none;align=center;verticalAlign=middle;whiteSpace=wrap;rounded=0;" vertex="1" parent="1">
          <mxGeometry x="110" y="110" width="140" height="120" as="geometry" />
        </mxCell>
        <mxCell id="ZyMeSrD0al1ncY0U2Chx-15" value="" style="rounded=0;whiteSpace=wrap;html=1;" vertex="1" parent="1">
          <mxGeometry x="390" y="40" width="280" height="440" as="geometry" />
        </mxCell>
        <mxCell id="ZyMeSrD0al1ncY0U2Chx-19" value="Name" style="rounded=0;whiteSpace=wrap;html=1;" vertex="1" parent="1">
          <mxGeometry x="450" y="90" width="160" height="30" as="geometry" />
        </mxCell>
        <mxCell id="ZyMeSrD0al1ncY0U2Chx-20" value="Email Address" style="rounded=0;whiteSpace=wrap;html=1;" vertex="1" parent="1">
          <mxGeometry x="450" y="140" width="160" height="30" as="geometry" />
        </mxCell>
        <mxCell id="ZyMeSrD0al1ncY0U2Chx-22" value="********" style="strokeWidth=1;shadow=0;dashed=0;align=center;html=1;shape=mxgraph.mockup.forms.pwField;strokeColor=#999999;mainText=;align=left;fontColor=#666666;fontSize=17;spacingLeft=3;" vertex="1" parent="1">
          <mxGeometry x="450" y="180" width="160" height="30" as="geometry" />
        </mxCell>
        <mxCell id="ZyMeSrD0al1ncY0U2Chx-23" value="DD" style="strokeWidth=1;shadow=0;dashed=0;align=center;html=1;shape=mxgraph.mockup.forms.comboBox;strokeColor=#999999;fillColor=#ddeeff;align=left;fillColor2=#aaddff;mainText=;fontColor=#666666;fontSize=17;spacingLeft=3;" vertex="1" parent="1">
          <mxGeometry x="410" y="230" width="60" height="30" as="geometry" />
        </mxCell>
        <mxCell id="ZyMeSrD0al1ncY0U2Chx-24" value="MM" style="strokeWidth=1;shadow=0;dashed=0;align=center;html=1;shape=mxgraph.mockup.forms.comboBox;strokeColor=#999999;fillColor=#ddeeff;align=left;fillColor2=#aaddff;mainText=;fontColor=#666666;fontSize=17;spacingLeft=3;" vertex="1" parent="1">
          <mxGeometry x="480" y="230" width="70" height="30" as="geometry" />
        </mxCell>
        <mxCell id="ZyMeSrD0al1ncY0U2Chx-25" value="YYYY" style="strokeWidth=1;shadow=0;dashed=0;align=center;html=1;shape=mxgraph.mockup.forms.comboBox;strokeColor=#999999;fillColor=#ddeeff;align=left;fillColor2=#aaddff;mainText=;fontColor=#666666;fontSize=17;spacingLeft=3;" vertex="1" parent="1">
          <mxGeometry x="560" y="230" width="90" height="30" as="geometry" />
        </mxCell>
        <mxCell id="ZyMeSrD0al1ncY0U2Chx-27" value="Household Name" style="rounded=0;whiteSpace=wrap;html=1;" vertex="1" parent="1">
          <mxGeometry x="450" y="280" width="160" height="30" as="geometry" />
        </mxCell>
        <mxCell id="ZyMeSrD0al1ncY0U2Chx-28" value="No. In House" style="strokeWidth=1;shadow=0;dashed=0;align=center;html=1;shape=mxgraph.mockup.forms.comboBox;strokeColor=#999999;fillColor=#ddeeff;align=left;fillColor2=#aaddff;mainText=;fontColor=#666666;fontSize=17;spacingLeft=3;" vertex="1" parent="1">
          <mxGeometry x="455" y="320" width="150" height="30" as="geometry" />
        </mxCell>
        <mxCell id="ZyMeSrD0al1ncY0U2Chx-29" value="&lt;font style=&quot;font-size: 12px;&quot;&gt;Invite Now&lt;/font&gt;" style="strokeWidth=1;shadow=0;dashed=0;align=center;html=1;shape=mxgraph.mockup.buttons.button;strokeColor=#666666;fontColor=#ffffff;mainText=;buttonStyle=round;fontSize=17;fontStyle=1;fillColor=#008cff;whiteSpace=wrap;" vertex="1" parent="1">
          <mxGeometry x="492" y="370" width="76" height="30" as="geometry" />
        </mxCell>
        <mxCell id="ZyMeSrD0al1ncY0U2Chx-30" value="Show invite now button when No. In House &amp;gt; 1" style="text;html=1;strokeColor=none;fillColor=none;align=center;verticalAlign=middle;whiteSpace=wrap;rounded=0;" vertex="1" parent="1">
          <mxGeometry x="680" y="355" width="110" height="60" as="geometry" />
        </mxCell>
        <mxCell id="ZyMeSrD0al1ncY0U2Chx-35" style="edgeStyle=orthogonalEdgeStyle;rounded=0;orthogonalLoop=1;jettySize=auto;html=1;entryX=0.5;entryY=0;entryDx=0;entryDy=0;" edge="1" parent="1" source="ZyMeSrD0al1ncY0U2Chx-32" target="ZyMeSrD0al1ncY0U2Chx-33">
          <mxGeometry relative="1" as="geometry">
            <Array as="points">
              <mxPoint x="530" y="490" />
              <mxPoint x="360" y="490" />
            </Array>
          </mxGeometry>
        </mxCell>
        <mxCell id="ZyMeSrD0al1ncY0U2Chx-32" value="&lt;font style=&quot;font-size: 12px;&quot;&gt;Sign Up&lt;/font&gt;" style="strokeWidth=1;shadow=0;dashed=0;align=center;html=1;shape=mxgraph.mockup.buttons.button;strokeColor=#666666;fontColor=#ffffff;mainText=;buttonStyle=round;fontSize=17;fontStyle=1;fillColor=#008cff;whiteSpace=wrap;" vertex="1" parent="1">
          <mxGeometry x="492" y="415" width="76" height="30" as="geometry" />
        </mxCell>
        <mxCell id="ZyMeSrD0al1ncY0U2Chx-33" value="" style="rounded=0;whiteSpace=wrap;html=1;" vertex="1" parent="1">
          <mxGeometry x="220" y="510" width="280" height="440" as="geometry" />
        </mxCell>
        <mxCell id="ZyMeSrD0al1ncY0U2Chx-36" value="" style="strokeWidth=1;shadow=0;dashed=0;align=center;html=1;shape=mxgraph.mockup.forms.rrect;rSize=0;strokeColor=#999999;fillColor=#ffffff;" vertex="1" parent="1">
          <mxGeometry x="260" y="630" width="200" height="310" as="geometry" />
        </mxCell>
        <mxCell id="ZyMeSrD0al1ncY0U2Chx-38" value="" style="shape=line;strokeColor=#ddeeff;strokeWidth=2;html=1;resizeWidth=1;" vertex="1" parent="ZyMeSrD0al1ncY0U2Chx-36">
          <mxGeometry width="180" height="10" relative="1" as="geometry">
            <mxPoint x="10" y="30" as="offset" />
          </mxGeometry>
        </mxCell>
        <mxCell id="ZyMeSrD0al1ncY0U2Chx-39" value="User Name:" style="strokeWidth=1;shadow=0;dashed=0;align=center;html=1;shape=mxgraph.mockup.forms.anchor;fontSize=12;fontColor=#666666;align=left;resizeWidth=1;spacingLeft=0;" vertex="1" parent="ZyMeSrD0al1ncY0U2Chx-36">
          <mxGeometry width="100" height="20" relative="1" as="geometry">
            <mxPoint x="10" y="40" as="offset" />
          </mxGeometry>
        </mxCell>
        <mxCell id="ZyMeSrD0al1ncY0U2Chx-40" value="johndoe" style="strokeWidth=1;shadow=0;dashed=0;align=center;html=1;shape=mxgraph.mockup.forms.rrect;rSize=0;strokeColor=#999999;fontColor=#666666;align=left;spacingLeft=5;resizeWidth=1;" vertex="1" parent="ZyMeSrD0al1ncY0U2Chx-36">
          <mxGeometry width="150" height="25" relative="1" as="geometry">
            <mxPoint x="10" y="60" as="offset" />
          </mxGeometry>
        </mxCell>
        <mxCell id="ZyMeSrD0al1ncY0U2Chx-41" value="Password:" style="strokeWidth=1;shadow=0;dashed=0;align=center;html=1;shape=mxgraph.mockup.forms.anchor;fontSize=12;fontColor=#666666;align=left;resizeWidth=1;spacingLeft=0;" vertex="1" parent="ZyMeSrD0al1ncY0U2Chx-36">
          <mxGeometry width="100" height="20" relative="1" as="geometry">
            <mxPoint x="10" y="95" as="offset" />
          </mxGeometry>
        </mxCell>
        <mxCell id="ZyMeSrD0al1ncY0U2Chx-42" value="********" style="strokeWidth=1;shadow=0;dashed=0;align=center;html=1;shape=mxgraph.mockup.forms.rrect;rSize=0;strokeColor=#999999;fontColor=#666666;align=left;spacingLeft=5;resizeWidth=1;" vertex="1" parent="ZyMeSrD0al1ncY0U2Chx-36">
          <mxGeometry width="150" height="25" relative="1" as="geometry">
            <mxPoint x="10" y="115" as="offset" />
          </mxGeometry>
        </mxCell>
        <mxCell id="ZyMeSrD0al1ncY0U2Chx-43" value="SIGN IN" style="strokeWidth=1;shadow=0;dashed=0;align=center;html=1;shape=mxgraph.mockup.forms.rrect;rSize=5;strokeColor=none;fontColor=#ffffff;fillColor=#66bbff;fontSize=16;fontStyle=1;" vertex="1" parent="ZyMeSrD0al1ncY0U2Chx-36">
          <mxGeometry y="1" width="80" height="30" relative="1" as="geometry">
            <mxPoint x="20" y="-150" as="offset" />
          </mxGeometry>
        </mxCell>
        <mxCell id="ZyMeSrD0al1ncY0U2Chx-44" value="Forgot Password?" style="strokeWidth=1;shadow=0;dashed=0;align=center;html=1;shape=mxgraph.mockup.forms.anchor;fontSize=12;fontColor=#9999ff;align=left;spacingLeft=0;fontStyle=4;resizeWidth=1;" vertex="1" parent="ZyMeSrD0al1ncY0U2Chx-36">
          <mxGeometry y="1" width="150" height="20" relative="1" as="geometry">
            <mxPoint x="10" y="-110" as="offset" />
          </mxGeometry>
        </mxCell>
        <mxCell id="ZyMeSrD0al1ncY0U2Chx-48" value="&lt;h1&gt;&lt;b&gt;Sign In&lt;/b&gt;&lt;/h1&gt;" style="text;html=1;strokeColor=none;fillColor=none;align=center;verticalAlign=middle;whiteSpace=wrap;rounded=0;" vertex="1" parent="1">
          <mxGeometry x="315" y="520" width="90" height="30" as="geometry" />
        </mxCell>
        <mxCell id="ZyMeSrD0al1ncY0U2Chx-50" style="edgeStyle=orthogonalEdgeStyle;rounded=0;orthogonalLoop=1;jettySize=auto;html=1;entryX=0;entryY=0.5;entryDx=0;entryDy=0;exitX=0;exitY=0.5;exitDx=0;exitDy=0;" edge="1" parent="1" source="ZyMeSrD0al1ncY0U2Chx-49" target="ZyMeSrD0al1ncY0U2Chx-11">
          <mxGeometry relative="1" as="geometry" />
        </mxCell>
        <mxCell id="ZyMeSrD0al1ncY0U2Chx-49" value="&amp;lt; Back" style="text;html=1;strokeColor=none;fillColor=none;align=center;verticalAlign=middle;whiteSpace=wrap;rounded=0;" vertex="1" parent="1">
          <mxGeometry x="220" y="520" width="60" height="30" as="geometry" />
        </mxCell>
        <mxCell id="ZyMeSrD0al1ncY0U2Chx-51" value="&amp;lt; Back" style="text;html=1;strokeColor=none;fillColor=none;align=center;verticalAlign=middle;whiteSpace=wrap;rounded=0;" vertex="1" parent="1">
          <mxGeometry x="395" y="50" width="60" height="30" as="geometry" />
        </mxCell>
      </root>
    </mxGraphModel>
  </diagram>
</mxfile>
